#!OML:ASF E:\acrobat2\Project_11_07_03\Capture day 1\Session 1\Acrobat.ASF
:FULLY-SPECIFIED
:DEGREES
489
root 6.78025 15.8588 19.2061 261.469 -11.444 130.56
lowerback 11.4354 -5.04203 9.87777
upperback 0.750616 -5.25988 7.6135
thorax -5.76903 -2.81543 3.45716
lowerneck -5.82542 -7.55151 0.368617
upperneck -21.7202 -10.7728 3.69595
head -5.46738 -6.24302 1.46899
rclavicle -5.725e-014 1.66979e-014
rhumerus 74.5144 -38.5652 -70.2482
rradius 15.0657
rwrist 3.90542
rhand -20.4808 -46.9156
rfingers 7.12502
rthumb 5.8756 -436.814
lclavicle -5.725e-014 1.66979e-014
lhumerus 56.1542 16.952 44.6395
lradius 58.7996
lwrist 14.488
lhand -49.0462 -35.4143
lfingers 7.12502
lthumb -21.6734 -6.60742
rfemur -73.8163 -35.5477 -19.2932
rtibia 65.3319
rfoot -46.9973 -19.8924
rtoes 10.6103
lfemur -23.3077 16.6061 -29.9271
ltibia 11.6004
lfoot 14.5868 12.5639
ltoes 47.1436
490
root 6.729 15.8866 19.4642 260.169 -13.1806 131.043
lowerback 11.8255 -4.98709 9.73989
upperback 0.924222 -5.19246 7.84536
thorax -5.76178 -2.78859 3.79593
lowerneck -5.94677 -7.40958 0.0118953
upperneck -21.0911 -10.5685 3.65759
head -5.23248 -6.08354 1.47466
rclavicle 1.59028e-014 7.59357e-014
rhumerus 69.4597 -38.9296 -64.154
rradius 16.2003
rwrist 0.944105
rhand -20.9031 -46.9077
rfingers 7.12502
rthumb 5.4679 -436.817
lclavicle 1.59028e-014 7.59357e-014
lhumerus 54.7486 14.7365 46.529
lradius 58.6974
lwrist 14.3357
lhand -48.4983 -34.4524
lfingers 7.12502
lthumb -21.1471 -5.58575
rfemur -73.5125 -34.9428 -18.4077
rtibia 66.0131
rfoot -46.7779 -19.7538
rtoes 10.3677
lfemur -23.1082 16.7493 -30.4281
ltibia 11.2266
lfoot 13.8829 12.8325
ltoes 46.1156
491
root 6.66925 15.9203 19.7112 258.729 -15.1173 131.426
lowerback 12.2176 -5.00204 9.96316
upperback 1.06142 -5.16407 7.99888
thorax -5.83442 -2.79008 3.86816
lowerneck -6.10897 -7.3553 -0.399183
upperneck -19.9923 -10.3813 3.89593
head -4.82616 -5.91023 1.55184
rclavicle 1.62208e-013 6.38099e-014
rhumerus 63.8053 -39.0273 -58.2143
rradius 17.8388
rwrist -2.02003
rhand -21.7697 -47.0574
rfingers 7.12502
rthumb 4.63117 -436.987
lclavicle 1.62208e-013 6.38099e-014
lhumerus 53.2177 12.284 47.9412
lradius 58.3425
lwrist 14.0119
lhand -47.8969 -33.2869
lfingers 7.12502
lthumb -20.5693 -4.35671
rfemur -72.7496 -34.3876 -17.5406
rtibia 66.5437
rfoot -46.4475 -19.7256
rtoes 9.08014
lfemur -22.4448 16.1646 -30.3019
ltibia 10.7229
lfoot 12.8748 13.3086
ltoes 46.4143
492
root 6.60959 15.9466 19.961 257.463 -16.7488 131.826
lowerback 12.369 -4.91431 9.81699
upperback 1.15274 -5.07468 8.03266
thorax -5.8019 -2.75034 3.97503
lowerneck -6.80371 -7.36946 -0.569234
upperneck -18.1121 -10.3343 3.91872
head -4.60381 -5.78749 1.64134
rclavicle -3.18055e-015 1.70116e-014
rhumerus 59.2451 -39.2798 -54.0731
rradius 19.1361
rwrist -3.66481
rhand -22.5726 -47.3769
rfingers 7.12502
rthumb 3.85588 -437.322
lclavicle -3.18055e-015 1.70116e-014
lhumerus 52.0433 9.80973 49.1736
lradius 57.458
lwrist 13.7136
lhand -47.306 -32.4157
lfingers 7.12502
lthumb -20.0014 -3.42517
rfemur -72.224 -33.9703 -16.9298
rtibia 67.0993
rfoot -46.094 -19.5503
rtoes 8.54355
lfemur -21.8729 15.1729 -30.3123
ltibia 10.2332
lfoot 11.0979 13.8502
ltoes 45.9483
493
root 6.55017 15.9729 20.211 256.191 -18.3838 132.256
lowerback 12.5455 -4.80556 9.69591
upperback 1.22474 -4.94623 8.0168
thorax -5.81147 -2.69222 4.01172
lowerneck -7.09946 -7.35635 -0.511908
upperneck -17.2095 -10.2695 3.89502
head -4.21578 -5.70982 1.55818
rclavicle -1.01778e-013 -3.53837e-014
rhumerus 55.354 -39.6726 -51.0728
rradius 20.1524
rwrist -4.72548
rhand -23.2674 -47.3867
rfingers 7.12502
rthumb 3.18485 -437.343
lclavicle -1.01778e-013 -3.53837e-014
lhumerus 50.9624 7.31399 50.4564
lradius 56.383
lwrist 13.3783
lhand -46.6675 -31.7821
lfingers 7.12502
lthumb -19.3876 -2.72864
rfemur -71.5176 -33.4816 -16.4544
rtibia 67.5346
rfoot -45.668 -19.1878
rtoes 7.89542
lfemur -21.2647 14.004 -30.1746
ltibia 9.85928
lfoot 9.96255 14.8768
ltoes 44.7547
494
root 6.48821 16.0075 20.4534 254.763 -20.2703 132.653
lowerback 12.8812 -4.86717 9.89017
upperback 1.33904 -4.98171 8.02891
thorax -5.88805 -2.72132 3.95389
lowerneck -7.25419 -7.22539 -0.548657
upperneck -16.4271 -10.0485 3.92524
head -3.89977 -5.55811 1.52346
rclavicle 2.22639e-014 4.85035e-014
rhumerus 51.856 -39.902 -48.7719
rradius 21.1585
rwrist -6.00151
rhand -23.7869 -47.1815
rfingers 7.12502
rthumb 2.68317 -437.144
lclavicle 2.22639e-014 4.85035e-014
lhumerus 49.5414 4.99647 51.5755
lradius 55.3548
lwrist 13.0028
lhand -45.8953 -31.5076
lfingers 7.12502
lthumb -18.645 -2.38118
rfemur -70.4362 -32.9697 -15.8674
rtibia 67.9602
rfoot -45.2817 -18.9277
rtoes 5.22282
lfemur -20.4343 12.7994 -29.6429
ltibia 9.56552
lfoot 9.28406 15.9573
ltoes 42.2264
495
root 6.42059 16.0481 20.6934 253.335 -22.1291 132.904
lowerback 13.2617 -5.0674 10.0821
upperback 1.44316 -5.18666 8.04491
thorax -6.00178 -2.83115 3.94189
lowerneck -7.37236 -7.05132 -0.699647
upperneck -15.7437 -9.79668 3.84664
head -3.63243 -5.3922 1.48178
rclavicle 1.27222e-014 1.19668e-013
rhumerus 48.5083 -39.9171 -46.8856
rradius 22.4232
rwrist -7.66353
rhand -23.7674 -46.777
rfingers 7.12502
rthumb 2.70199 -436.74
lclavicle 1.27222e-014 1.19668e-013
lhumerus 47.8794 2.93847 52.6244
lradius 54.2536
lwrist 12.5771
lhand -45.2529 -31.8681
lfingers 7.12502
lthumb -18.027 -2.68348
rfemur -69.1653 -32.7305 -15.4132
rtibia 68.3324
rfoot -44.9403 -18.4586
rtoes 3.11457
lfemur -19.4735 11.45 -29.1294
ltibia 9.18007
lfoot 6.25671 15.676
ltoes 43.7172
496
root 6.34892 16.0895 20.9336 252.08 -23.9753 133.067
lowerback 13.455 -5.25385 10.326
upperback 1.47501 -5.37757 7.97672
thorax -6.10424 -2.93293 3.79556
lowerneck -7.47127 -6.9188 -0.695435
upperneck -15.0438 -9.60385 3.72143
head -3.37566 -5.26003 1.40303
rclavicle 2.54444e-014 4.77083e-015
rhumerus 44.9019 -40.0426 -45.2198
rradius 23.8798
rwrist -9.56703
rhand -23.7363 -46.1617
rfingers 7.12502
rthumb 2.73207 -436.124
lclavicle 2.54444e-014 4.77083e-015
lhumerus 46.244 0.823182 53.6436
lradius 53.1531
lwrist 12.0048
lhand -44.6224 -32.3171
lfingers 7.12502
lthumb -17.4203 -3.07765
rfemur -67.7246 -32.5931 -15.1434
rtibia 68.385
rfoot -44.4805 -17.8983
rtoes 2.54588
lfemur -18.5662 9.89135 -28.6254
ltibia 8.67199
lfoot 3.89937 16.0128
ltoes 44.8743
497
root 6.27965 16.1294 21.1682 250.847 -25.9235 133.286
lowerback 13.5478 -5.37072 10.72
upperback 1.5216 -5.47162 7.78335
thorax -6.16114 -2.9896 3.40222
lowerneck -7.60198 -6.84029 -0.382824
upperneck -14.2448 -9.47117 3.66717
head -3.09196 -5.16535 1.29367
rclavicle -1.145e-013 5.08889e-014
rhumerus 41.2583 -40.5083 -43.7943
rradius 25.1809
rwrist -11.6264
rhand -23.7976 -47.1976
rfingers 7.12502
rthumb 2.67286 -437.161
lclavicle -1.145e-013 5.08889e-014
lhumerus 44.9009 -1.49923 54.3974
lradius 51.9432
lwrist 11.4409
lhand -44.0394 -32.7575
lfingers 7.12502
lthumb -16.8591 -3.4693
rfemur -66.1777 -32.3379 -14.7674
rtibia 68.3024
rfoot -43.9407 -17.7272
rtoes 1.29843
lfemur -17.6823 8.92243 -28.0293
ltibia 8.11732
lfoot 2.32708 16.3839
ltoes 45.5411
498
root 6.21338 16.1703 21.3994 249.534 -27.7684 133.574
lowerback 13.8575 -5.6675 10.7829
upperback 1.5128 -5.80434 7.77701
thorax -6.35696 -3.1566 3.47017
lowerneck -7.43619 -6.60507 -0.85787
upperneck -13.4787 -9.08094 3.85961
head -2.83071 -4.91819 1.40659
rclavicle 2.29e-013 1.39944e-013
rhumerus 39.6294 -41.8702 -46.9738
rradius 27.231
rwrist -10.3925
rhand -23.785 -48.2844
rfingers 7.12502
rthumb 2.68504 -438.247
lclavicle 2.29e-013 1.39944e-013
lhumerus 41.6084 -3.22354 56.6772
lradius 51.7194
lwrist 9.43694
lhand -43.8372 -33.3572
lfingers 7.12502
lthumb -16.6645 -4.05258
rfemur -64.7906 -32.1789 -14.293
rtibia 68.3279
rfoot -43.3427 -17.7298
rtoes -0.983623
lfemur -16.7324 8.63291 -27.5503
ltibia 7.44202
lfoot 1.23227 16.6884
ltoes 46.4954
